<svg xmlns="http://www.w3.org/2000/svg" viewBox="0 0 170 45"><title>LichtBlick Logo</title><path class="logo-sun" fill="#fcbc67" d="M40 25c0 11.046-8.954 20-20 20s-20-8.954-20-20c0-11.046 8.954-20 20-20s20 8.954 20 20z"></path><path d="M30 36c-8.837 0-16-7.163-16-16s7.163-16 16-16c8.837 0 16 7.163 16 16s-7.163 16-16 16zM30 40c11.046 0 20-8.954 20-20s-8.954-20-20-20c-11.046 0-20 8.954-20 20s8.954 20 20 20z"></path><path d="M71.491 29.423c0-0.235-0.175-0.323-0.582-0.323h-6.923v-15.869c0-0.528-0.087-0.616-0.611-0.616h-2.764c-0.553 0-0.611 0.059-0.611 0.616v18.891c0 0.557 0.058 0.616 0.611 0.616h9.629c0.466 0 0.582-0.088 0.669-0.528l0.524-2.435c0.058-0.293 0.058-0.293 0.058-0.352z"></path><path d="M77.234 13.935c0-1.291-1.047-2.376-2.327-2.376-1.309 0-2.385 1.056-2.385 2.347 0 1.349 1.047 2.405 2.356 2.405s2.356-1.056 2.356-2.376zM76.827 32.239v-13.493c0-0.44-0.058-0.499-0.495-0.499h-5.411c-0.437 0-0.495 0.059-0.495 0.499v1.731c0 0.44 0.058 0.499 0.495 0.499h2.211v11.264c0 0.44 0.058 0.499 0.495 0.499h2.705c0.436 0 0.495-0.059 0.495-0.499z"></path><path d="M89.653 19.42c0-0.733-2.356-1.672-4.131-1.672-4.16 0-6.72 3.051-6.72 8.037 0 4.723 2.298 7.451 6.255 7.451 1.979 0 4.218-0.851 4.218-1.584 0-0.117 0-0.117-0.087-0.352l-0.698-1.789c-0.058-0.117-0.146-0.205-0.233-0.205s-0.204 0.059-0.32 0.147c-0.843 0.557-1.571 0.821-2.385 0.821-2.007 0-2.909-1.437-2.909-4.635 0-3.403 0.902-4.928 2.88-4.928 0.873 0 1.396 0.205 2.473 0.997 0.116 0.088 0.204 0.117 0.29 0.117s0.204-0.088 0.262-0.205l1.018-1.877c0.058-0.117 0.087-0.235 0.087-0.323z"></path><path d="M94.75 32.239v-10.296c0.96-0.88 1.629-1.203 2.502-1.203 1.163 0 1.6 0.675 1.6 2.464v9.035c0 0.44 0.058 0.499 0.495 0.499h2.705c0.436 0 0.495-0.059 0.495-0.499v-9.885c0-1.496-0.146-2.288-0.582-3.021-0.611-0.997-1.804-1.584-3.2-1.584-1.542 0-2.822 0.557-4.014 1.701v-7.451c0-0.352-0.087-0.499-0.291-0.499-0.058 0-0.175 0-0.262 0.029l-2.705 0.557c-0.408 0.088-0.437 0.117-0.437 0.528v19.624c0 0.44 0.058 0.499 0.495 0.499h2.705c0.437 0 0.495-0.059 0.495-0.499z"></path><path d="M114.052 32.092c0-0.088 0-0.117-0.058-0.323l-0.466-2.053c-0.058-0.176-0.146-0.293-0.29-0.293-0.087 0-0.175 0.029-0.262 0.059-1.076 0.44-1.338 0.499-1.92 0.499-0.873 0-1.076-0.323-1.076-1.877v-7.128h2.88c0.349 0 0.437-0.088 0.524-0.44l0.379-1.731c0.029-0.088 0.029-0.176 0.029-0.264 0-0.235-0.116-0.293-0.495-0.293h-3.317v-4.136c0-0.352-0.087-0.469-0.291-0.469h-0.262l-2.676 0.381c-0.408 0.059-0.466 0.117-0.466 0.528v3.696h-2.007c-0.437 0-0.495 0.059-0.495 0.499v1.731c0 0.44 0.058 0.499 0.495 0.499h2.007v7.656c0 1.643 0.146 2.376 0.64 3.109 0.669 0.997 1.775 1.496 3.288 1.496 0.96 0 1.949-0.176 2.938-0.499 0.728-0.235 0.902-0.352 0.902-0.645z"></path><path d="M128.28 27.047c0-2.435-1.338-4.224-3.665-4.84 2.066-0.939 2.938-2.288 2.938-4.429 0-1.789-0.785-3.461-2.037-4.312-0.989-0.675-1.92-0.851-4.713-0.851h-4.713c-0.524 0-0.611 0.088-0.611 0.616v18.891c0 0.557 0.058 0.616 0.611 0.616h4.946c2.414 0 3.491-0.147 4.422-0.616 1.658-0.821 2.822-2.904 2.822-5.075zM123.685 18.188c0 0.997-0.349 1.848-0.931 2.288-0.524 0.381-1.076 0.499-2.269 0.499h-1.222v-5.427h1.542c0.901 0 1.338 0.088 1.746 0.323 0.727 0.44 1.134 1.261 1.134 2.317zM124.266 26.812c0 1.965-1.018 2.728-3.636 2.728h-1.367v-5.544h1.425c2.589 0 3.578 0.792 3.578 2.816z"></path><path d="M136.665 32.415c0-0.029 0-0.059-0.029-0.117l-0.029-0.117-0.582-2.405c-0.029-0.117-0.116-0.176-0.233-0.176-0.029 0-0.116 0-0.204 0.029-0.379 0.117-0.64 0.176-0.96 0.176-0.408 0-0.611-0.176-0.728-0.587-0.058-0.235-0.058-0.293-0.058-1.936v-15.283c0-0.352-0.087-0.499-0.291-0.499-0.058 0-0.058 0-0.349 0.059l-2.618 0.528c-0.29 0.059-0.436 0.235-0.436 0.557v14.901c0 2.552 0.029 2.904 0.262 3.579 0.466 1.379 1.629 2.112 3.317 2.112 1.396 0 2.938-0.44 2.938-0.821z"></path><path d="M142.736 13.935c0-1.291-1.047-2.376-2.328-2.376-1.309 0-2.385 1.056-2.385 2.347 0 1.349 1.047 2.405 2.356 2.405s2.356-1.056 2.356-2.376zM142.329 32.239v-13.493c0-0.44-0.058-0.499-0.495-0.499h-5.411c-0.436 0-0.495 0.059-0.495 0.499v1.731c0 0.44 0.058 0.499 0.495 0.499h2.211v11.264c0 0.44 0.058 0.499 0.495 0.499h2.705c0.437 0 0.495-0.059 0.495-0.499z"></path><path d="M154.865 19.42c0-0.733-2.356-1.672-4.131-1.672-4.16 0-6.72 3.051-6.72 8.037 0 4.723 2.298 7.451 6.255 7.451 1.978 0 4.218-0.851 4.218-1.584 0-0.117 0-0.117-0.087-0.352l-0.699-1.789c-0.058-0.117-0.146-0.205-0.233-0.205s-0.204 0.059-0.32 0.147c-0.843 0.557-1.571 0.821-2.385 0.821-2.008 0-2.909-1.437-2.909-4.635 0-3.403 0.901-4.928 2.88-4.928 0.872 0 1.396 0.205 2.472 0.997 0.116 0.088 0.204 0.117 0.291 0.117s0.204-0.088 0.262-0.205l1.018-1.877c0.058-0.117 0.087-0.235 0.087-0.323z"></path><path d="M168.66 31.476c0-0.088-0.058-0.235-0.175-0.352l-5.353-6.512 4.771-4.635c0.146-0.147 0.204-0.264 0.204-0.352 0-0.117-0.087-0.235-0.233-0.352l-1.571-1.261c-0.233-0.205-0.233-0.205-0.349-0.205s-0.116 0-0.349 0.235l-5.644 5.72v-11.763c0-0.352-0.087-0.499-0.291-0.499l-0.262 0.029-2.705 0.557c-0.407 0.088-0.436 0.147-0.436 0.528v19.624c0 0.44 0.058 0.499 0.495 0.499h2.705c0.436 0 0.495-0.059 0.495-0.499v-6.307l5.44 7.040c0.146 0.205 0.233 0.264 0.378 0.264 0.087 0 0.087 0 0.291-0.117l2.298-1.291c0.204-0.117 0.291-0.235 0.291-0.352z"></path></svg>